<?xml version="1.0" encoding="UTF-8"?>
<svg id="Layer_2" data-name="Layer 2" xmlns="http://www.w3.org/2000/svg" viewBox="0 0 1024 849.73">
  <defs>
    <style>
      .cls-1, .cls-2 {
        fill: #10182a;
      }

      .cls-2 {
        opacity: .3;
      }
    </style>
  </defs>
  <g id="Layer_1-2" data-name="Layer 1">
    <g>
      <path class="cls-2" d="m826.74,615.33l-756.17,97.86c-37.42,4.84-70.57-24.3-70.57-62.02V160.41c0-31.44,23.34-57.99,54.51-62.02L810.69.53c37.42-4.84,70.57,24.3,70.57,62.02v490.75c0,31.44-23.34,57.99-54.51,62.02Z"/>
      <path class="cls-1" d="m969.49,751.34l-756.17,97.86c-37.42,4.84-70.57-24.3-70.57-62.02v-490.75c0-31.44,23.34-57.99,54.51-62.02l756.17-97.86c37.42-4.84,70.57,24.3,70.57,62.02v490.75c0,31.44-23.34,57.99-54.51,62.02Z"/>
    </g>
  </g>
</svg>